<svg xmlns="http://www.w3.org/2000/svg" viewBox="0 0 129.9 41.53"><defs><style>.cls-1{fill:#703688;}.cls-2{fill:#8e44ad;}.cls-3{fill:#f1c40f;}.cls-4{fill:#bdc3c7;}</style></defs><g id="Layer_2" data-name="Layer 2"><g id="Layer_1-2" data-name="Layer 1"><path class="cls-1" d="M.32,22.19,9.38,40a2.88,2.88,0,0,0,2.56,1.57h5.85a2.87,2.87,0,0,0,2.66-4L12.52,18H2.88A2.87,2.87,0,0,0,.32,22.19Z"/><path class="cls-1" d="M129.59,22.19,120.52,40A2.88,2.88,0,0,1,118,41.53h-5.84a2.88,2.88,0,0,1-2.67-4L117.38,18H127A2.88,2.88,0,0,1,129.59,22.19Z"/><path class="cls-2" d="M11.66,15.9l7.93,19.56H65.48V11.94H14.33A2.88,2.88,0,0,0,11.66,15.9Z"/><path class="cls-2" d="M118.24,15.9l-7.93,19.56H64.43V11.94h51.15A2.88,2.88,0,0,1,118.24,15.9Z"/><path class="cls-3" d="M36.72,1l2.75,5.58a1.74,1.74,0,0,0,1.3.94l6.15.89a1.73,1.73,0,0,1,1,3l-4.45,4.34a1.7,1.7,0,0,0-.5,1.53l1,6.12a1.73,1.73,0,0,1-2.51,1.82L36,22.24a1.68,1.68,0,0,0-1.6,0l-5.5,2.89a1.73,1.73,0,0,1-2.51-1.82l1.05-6.12a1.7,1.7,0,0,0-.5-1.53l-4.45-4.34a1.73,1.73,0,0,1,1-3l6.15-.89a1.74,1.74,0,0,0,1.3-.94L33.62,1A1.73,1.73,0,0,1,36.72,1Z"/><path class="cls-3" d="M66.5,1l2.75,5.58a1.74,1.74,0,0,0,1.3.94l6.15.89a1.73,1.73,0,0,1,1,3l-4.45,4.34a1.7,1.7,0,0,0-.5,1.53l1.05,6.12a1.72,1.72,0,0,1-2.5,1.82l-5.51-2.89a1.68,1.68,0,0,0-1.6,0l-5.5,2.89a1.73,1.73,0,0,1-2.51-1.82l1-6.12a1.72,1.72,0,0,0-.49-1.53l-4.45-4.34a1.73,1.73,0,0,1,1-3l6.15-.89a1.74,1.74,0,0,0,1.3-.94L63.4,1A1.73,1.73,0,0,1,66.5,1Z"/><path class="cls-4" d="M96.28,1,99,6.54a1.74,1.74,0,0,0,1.3.94l6.15.89a1.73,1.73,0,0,1,1,3L103,15.66a1.73,1.73,0,0,0-.5,1.53l1.05,6.12a1.72,1.72,0,0,1-2.5,1.82l-5.5-2.89a1.7,1.7,0,0,0-1.61,0l-5.5,2.89a1.73,1.73,0,0,1-2.51-1.82l1-6.12a1.72,1.72,0,0,0-.49-1.53L82,11.32a1.73,1.73,0,0,1,1-3l6.15-.89a1.72,1.72,0,0,0,1.3-.94L93.18,1A1.73,1.73,0,0,1,96.28,1Z"/></g></g></svg>