<svg id="Component_2_2" data-name="Component 2 – 2" xmlns="http://www.w3.org/2000/svg" width="50.674" height="24" viewBox="0 0 50.674 24">
  <path id="W" d="M27.881,23.667H22.373l-5.1-15.689L12.133,23.667H6.523L0,0H5.678L9.632,15.155,14.6,0h5.475l4.968,15.188Z" transform="translate(0 0.333)" fill="#8e44ad"/>
  <path id="P" d="M5.431,24H.068L0,19.789,5.94,0,9.131.118A9.407,9.407,0,0,1,12.475.69a8.081,8.081,0,0,1,2.614,1.583,6.865,6.865,0,0,1,1.7,2.425,7.872,7.872,0,0,1,.594,3.065,7.961,7.961,0,0,1-.594,3.1,6.865,6.865,0,0,1-1.7,2.425,7.856,7.856,0,0,1-2.614,1.566,9.666,9.666,0,0,1-3.344.556h-3.7V24ZM5.575,4.865v6.162H8.7a3.69,3.69,0,0,0,2.481-.817,2.817,2.817,0,0,0,.951-2.247,2.858,2.858,0,0,0-.951-2.281A3.69,3.69,0,0,0,8.7,4.865Z" transform="translate(33.294)" fill="#8e44ad"/>
  <path id="Path_7" data-name="Path 7" d="M2.95,20.842,0,12.088,2.95,0H8.429Z" transform="translate(26.584 0.013)" fill="rgba(142,68,173,0.7)"/>
</svg>
